<?xml version="1.0" encoding="utf-8"?>
<!-- Generator: Adobe Illustrator 25.2.3, SVG Export Plug-In . SVG Version: 6.00 Build 0)  -->
<svg version="1.1" id="Layer_1" xmlns="http://www.w3.org/2000/svg" xmlns:xlink="http://www.w3.org/1999/xlink" x="0px" y="0px"
	 viewBox="0 0 209.12 58.85" style="enable-background:new 0 0 209.12 58.85;" xml:space="preserve">
<style type="text/css">
	.st0{fill:#FFFFFF;}
</style>
<path class="st0" d="M40.82,38.63l-4.51-9.08H9.63l-4.51,9.08C4.21,40.52,1.89,41.19,0,40.27L18.46,3.05C19.44,1.1,21.08,0,22.97,0
	c1.95,0,3.66,1.16,4.57,3.05L46,40.27C44.11,41.19,41.8,40.52,40.82,38.63 M24.07,4.75c-0.12-0.24-0.49-0.85-1.1-0.85
	c-0.37,0-0.73,0.3-1.04,0.91L11.58,25.65h22.79L24.07,4.75z"/>
<path class="st0" d="M55.02,40.64c-2.13,0-3.84-1.7-3.84-3.78V0h0.12c2.13,0,3.78,1.77,3.78,3.84v36.8H55.02z"/>
<path class="st0" d="M91.09,40.64c-2.13,0-3.9-1.7-3.9-3.78V26.2c0-6.58-4.26-10.6-11.09-10.6c-5.85,0-10.6,4.75-10.6,10.6
	c0,5.79,4.75,10.54,10.6,10.54c3.23,0,6.28-1.34,8.35-3.6c0.12,0.18,0.25,0.37,0.37,0.55c1.04,1.89,0.3,4.26-1.58,5.3
	c-2.13,1.1-4.63,1.65-7.13,1.65c-7.98,0-14.5-6.46-14.5-14.44c0-8.04,6.52-14.5,14.5-14.5c8.96,0,14.99,5.79,14.99,14.5V40.64z"/>
<path class="st0" d="M111.07,40.64c-7.98,0-14.5-6.46-14.5-14.44c0-7.98,6.52-14.5,14.5-14.5c2.5,0,4.99,0.55,7.13,1.71
	c1.89,0.98,2.62,3.35,1.58,5.3c-0.12,0.18-0.24,0.36-0.37,0.49c-2.07-2.26-5.12-3.53-8.35-3.53V15.6c-5.85,0-10.6,4.75-10.6,10.6
	c0,5.85,4.75,10.54,10.6,10.54c6.82,0,11.09-4.02,11.09-10.54V3.84c0-2.13,1.77-3.84,3.9-3.84v26.2
	C126.06,34.85,120.02,40.64,111.07,40.64"/>
<path class="st0" d="M146.04,40.64c-7.98,0-14.5-6.46-14.5-14.44c0-7.98,6.52-14.5,14.5-14.5c2.5,0,4.99,0.55,7.13,1.71
	c1.89,0.98,2.62,3.35,1.58,5.3c-0.12,0.18-0.24,0.36-0.37,0.49c-2.07-2.26-5.12-3.53-8.35-3.53V15.6c-5.85,0-10.6,4.75-10.6,10.6
	c0,5.85,4.75,10.54,10.6,10.54c6.82,0,11.09-4.02,11.09-10.54V3.84c0-2.13,1.77-3.84,3.9-3.84v26.2
	C161.03,34.85,155,40.64,146.04,40.64"/>
<path class="st0" d="M170.53,6.77c-1.16,0-2.07-0.91-2.07-2.07s0.91-2.13,2.07-2.13c1.16,0,2.13,0.97,2.13,2.13
	S171.69,6.77,170.53,6.77 M172.42,40.64c-2.13,0-3.84-1.71-3.84-3.78V11.7h0.06c2.07,0,3.9,1.65,3.9,3.78v25.17H172.42z"/>
<path class="st0" d="M208.97,40.64c-2.07,0-3.78-1.7-3.78-3.78V26.2c0-5.85-4.75-10.6-10.6-10.6c-5.85,0-10.6,4.75-10.6,10.6v10.66
	c0,2.07-1.7,3.78-3.78,3.78h-0.12V26.2c0-7.98,6.52-14.5,14.5-14.5c7.98,0,14.5,6.52,14.5,14.5v14.44H208.97z"/>
<path class="st0" d="M95.15,52.24c-0.71-0.97-1.86-1.59-3.13-1.59c-2.1,0-3.81,1.64-3.81,3.66c0,2.02,1.71,3.65,3.81,3.65
	c1.08,0,2.1-0.45,2.81-1.18c0.31-0.32,0.81-0.36,1.15-0.08c-0.33,0.51-0.76,0.97-1.29,1.32c-0.79,0.54-1.7,0.81-2.66,0.81
	c-2.57,0-4.66-2.02-4.66-4.51c0-2.49,2.1-4.52,4.66-4.52c1.83,0,3.49,1.05,4.24,2.64C95.9,52.66,95.42,52.58,95.15,52.24"/>
<path class="st0" d="M95.15,52.24c-0.71-0.97-1.86-1.59-3.13-1.59c-2.1,0-3.81,1.64-3.81,3.66c0,2.02,1.71,3.65,3.81,3.65
	c1.08,0,2.1-0.45,2.81-1.18c0.31-0.32,0.81-0.36,1.15-0.08c-0.33,0.51-0.76,0.97-1.29,1.32c-0.79,0.54-1.7,0.81-2.66,0.81
	c-2.57,0-4.66-2.02-4.66-4.51c0-2.49,2.1-4.52,4.66-4.52c1.83,0,3.49,1.05,4.24,2.64C95.9,52.66,95.42,52.58,95.15,52.24"/>
<path class="st0" d="M105.22,58.85c-2.64,0-4.79-2.06-4.79-4.57c0-2.53,2.14-4.59,4.79-4.59c2.64,0,4.79,2.06,4.79,4.59
	C110.01,56.79,107.86,58.85,105.22,58.85 M105.22,50.55c-2.17,0-3.92,1.67-3.92,3.73c0,2.04,1.75,3.71,3.92,3.71
	c2.17,0,3.92-1.67,3.92-3.71C109.15,52.21,107.39,50.55,105.22,50.55"/>
<path class="st0" d="M105.22,58.85c-2.64,0-4.79-2.06-4.79-4.57c0-2.53,2.14-4.59,4.79-4.59c2.64,0,4.79,2.06,4.79,4.59
	C110.01,56.79,107.86,58.85,105.22,58.85 M105.22,50.55c-2.17,0-3.92,1.67-3.92,3.73c0,2.04,1.75,3.71,3.92,3.71
	c2.17,0,3.92-1.67,3.92-3.71C109.15,52.21,107.39,50.55,105.22,50.55"/>
<path class="st0" d="M124.54,58.79c-0.45,0-0.84-0.36-0.84-0.81v-6.6l-3.23,6.32c-0.23,0.44-0.53,0.66-0.9,0.66
	c-0.38,0-0.68-0.22-0.91-0.66l-3.23-6.32v6.56c0,0.47-0.38,0.85-0.84,0.85h-0.03v-8.35c0-0.34,0.3-0.62,0.65-0.62
	c0.23,0,0.45,0.12,0.54,0.31l3.66,7.15c0.03,0.05,0.08,0.09,0.15,0.09c0.07,0,0.12-0.04,0.15-0.09l3.66-7.15
	c0.09-0.19,0.31-0.31,0.54-0.31c0.35,0,0.65,0.28,0.65,0.62v8.35H124.54z"/>
<path class="st0" d="M124.54,58.79c-0.45,0-0.84-0.36-0.84-0.81v-6.6l-3.23,6.32c-0.23,0.44-0.53,0.66-0.9,0.66
	c-0.38,0-0.68-0.22-0.91-0.66l-3.23-6.32v6.56c0,0.47-0.38,0.85-0.84,0.85h-0.03v-8.35c0-0.34,0.3-0.62,0.65-0.62
	c0.23,0,0.45,0.12,0.54,0.31l3.66,7.15c0.03,0.05,0.08,0.09,0.15,0.09c0.07,0,0.12-0.04,0.15-0.09l3.66-7.15
	c0.09-0.19,0.31-0.31,0.54-0.31c0.35,0,0.65,0.28,0.65,0.62v8.35H124.54z"/>
<path class="st0" d="M139.56,58.79c-0.45,0-0.84-0.36-0.84-0.81v-6.6l-3.23,6.32c-0.23,0.44-0.53,0.66-0.91,0.66
	c-0.38,0-0.67-0.22-0.9-0.66l-3.23-6.32v6.56c0,0.47-0.38,0.85-0.84,0.85h-0.03v-8.35c0-0.34,0.3-0.62,0.65-0.62
	c0.23,0,0.45,0.12,0.54,0.31l3.66,7.15c0.03,0.05,0.08,0.09,0.15,0.09c0.07,0,0.12-0.04,0.15-0.09l3.66-7.15
	c0.09-0.19,0.31-0.31,0.54-0.31c0.35,0,0.65,0.28,0.65,0.62v8.35H139.56z"/>
<path class="st0" d="M139.56,58.79c-0.45,0-0.84-0.36-0.84-0.81v-6.6l-3.23,6.32c-0.23,0.44-0.53,0.66-0.91,0.66
	c-0.38,0-0.67-0.22-0.9-0.66l-3.23-6.32v6.56c0,0.47-0.38,0.85-0.84,0.85h-0.03v-8.35c0-0.34,0.3-0.62,0.65-0.62
	c0.23,0,0.45,0.12,0.54,0.31l3.66,7.15c0.03,0.05,0.08,0.09,0.15,0.09c0.07,0,0.12-0.04,0.15-0.09l3.66-7.15
	c0.09-0.19,0.31-0.31,0.54-0.31c0.35,0,0.65,0.28,0.65,0.62v8.35H139.56z"/>
<path class="st0" d="M151.41,50.75h-5.81c-0.08,0-0.15,0.07-0.15,0.15v2.75h5.81c0,0.47-0.37,0.86-0.84,0.86h-4.97v3.17
	c0,0.09,0.07,0.16,0.16,0.16h5.66c0.47,0,0.84,0.39,0.84,0.86h-6.66c-0.45,0-0.85-0.36-0.85-0.81v-7.2c0-0.44,0.38-0.82,0.83-0.82
	h6.83C152.27,50.37,151.89,50.75,151.41,50.75"/>
<path class="st0" d="M151.41,50.75h-5.81c-0.08,0-0.15,0.07-0.15,0.15v2.75h5.81c0,0.47-0.37,0.86-0.84,0.86h-4.97v3.17
	c0,0.09,0.07,0.16,0.16,0.16h5.66c0.47,0,0.84,0.39,0.84,0.86h-6.66c-0.45,0-0.85-0.36-0.85-0.81v-7.2c0-0.44,0.38-0.82,0.83-0.82
	h6.83C152.27,50.37,151.89,50.75,151.41,50.75"/>
<path class="st0" d="M163.85,58.51l-2.76-3.39h-2.84c0-0.47,0.38-0.86,0.85-0.86h2.24c0.84,0,1.52-0.15,1.98-0.44
	c0.48-0.29,0.71-0.73,0.71-1.34c0-0.43-0.01-1.72-2.69-1.72h-3.35c-0.08,0-0.15,0.07-0.15,0.15v7.04c0,0.46-0.37,0.85-0.82,0.85
	h-0.03V50.7c0-0.44,0.38-0.82,0.82-0.82h3.53c3.08,0,3.54,1.63,3.54,2.6c0,1.47-0.99,2.39-2.74,2.59l2.89,3.55
	C164.68,58.91,164.14,58.88,163.85,58.51"/>
<path class="st0" d="M163.85,58.51l-2.76-3.39h-2.84c0-0.47,0.38-0.86,0.85-0.86h2.24c0.84,0,1.52-0.15,1.98-0.44
	c0.48-0.29,0.71-0.73,0.71-1.34c0-0.43-0.01-1.72-2.69-1.72h-3.35c-0.08,0-0.15,0.07-0.15,0.15v7.04c0,0.46-0.37,0.85-0.82,0.85
	h-0.03V50.7c0-0.44,0.38-0.82,0.82-0.82h3.53c3.08,0,3.54,1.63,3.54,2.6c0,1.47-0.99,2.39-2.74,2.59l2.89,3.55
	C164.68,58.91,164.14,58.88,163.85,58.51"/>
<path class="st0" d="M177.09,52.24c-0.71-0.97-1.86-1.59-3.13-1.59c-2.1,0-3.81,1.64-3.81,3.66c0,2.02,1.71,3.65,3.81,3.65
	c1.08,0,2.1-0.45,2.81-1.18c0.31-0.32,0.81-0.36,1.15-0.08c-0.34,0.51-0.76,0.97-1.29,1.32c-0.79,0.54-1.7,0.81-2.66,0.81
	c-2.57,0-4.66-2.02-4.66-4.51c0-2.49,2.1-4.52,4.66-4.52c1.83,0,3.49,1.05,4.24,2.64C177.84,52.66,177.36,52.58,177.09,52.24"/>
<path class="st0" d="M177.09,52.24c-0.71-0.97-1.86-1.59-3.13-1.59c-2.1,0-3.81,1.64-3.81,3.66c0,2.02,1.71,3.65,3.81,3.65
	c1.08,0,2.1-0.45,2.81-1.18c0.31-0.32,0.81-0.36,1.15-0.08c-0.34,0.51-0.76,0.97-1.29,1.32c-0.79,0.54-1.7,0.81-2.66,0.81
	c-2.57,0-4.66-2.02-4.66-4.51c0-2.49,2.1-4.52,4.66-4.52c1.83,0,3.49,1.05,4.24,2.64C177.84,52.66,177.36,52.58,177.09,52.24"/>
<path class="st0" d="M196.75,58.35l-0.99-2h-5.84l-0.99,2c-0.2,0.42-0.7,0.56-1.12,0.36l4.04-8.22c0.21-0.43,0.57-0.67,0.98-0.67
	c0.43,0,0.8,0.26,1,0.67l4.04,8.22C197.47,58.91,196.97,58.77,196.75,58.35 M193.08,50.87c-0.03-0.05-0.11-0.19-0.24-0.19
	c-0.08,0-0.16,0.07-0.23,0.2l-2.27,4.6h4.99L193.08,50.87z"/>
<path class="st0" d="M196.75,58.35l-0.99-2h-5.84l-0.99,2c-0.2,0.42-0.7,0.56-1.12,0.36l4.04-8.22c0.21-0.43,0.57-0.67,0.98-0.67
	c0.43,0,0.8,0.26,1,0.67l4.04,8.22C197.47,58.91,196.97,58.77,196.75,58.35 M193.08,50.87c-0.03-0.05-0.11-0.19-0.24-0.19
	c-0.08,0-0.16,0.07-0.23,0.2l-2.27,4.6h4.99L193.08,50.87z"/>
<path class="st0" d="M203.08,58.71c-0.45,0-0.85-0.36-0.85-0.82v-8.06h0.03c0.45,0,0.82,0.39,0.82,0.85v7.02
	c0,0.09,0.07,0.16,0.16,0.16h5.04c0.47,0,0.84,0.39,0.84,0.86H203.08z"/>
<path class="st0" d="M203.08,58.71c-0.45,0-0.85-0.36-0.85-0.82v-8.06h0.03c0.45,0,0.82,0.39,0.82,0.85v7.02
	c0,0.09,0.07,0.16,0.16,0.16h5.04c0.47,0,0.84,0.39,0.84,0.86H203.08z"/>
<path class="st0" d="M183.55,58.79c-0.47,0-0.84-0.38-0.84-0.83v-8.14h0.03c0.47,0,0.83,0.39,0.83,0.85v8.12H183.55z"/>
</svg>
