<?xml version="1.0" encoding="UTF-8"?> <svg xmlns="http://www.w3.org/2000/svg" width="169" height="24" viewBox="0 0 169 24" fill="none"><g clip-path="url(#clip0_6083_503)"><path d="M0.5 4.70627H8.09015V18.9167C8.09635 19.2768 8.10874 19.6436 8.09015 20.0037V23.1733H16.9009V4.70627H22.5145L25.3895 4.93547V1.18314H3.97598L0.5 1.05217V4.70627Z" fill="#004677"></path><path d="M137.935 1.17005L132.166 9.15931L126.466 1.17005H115.338V1.26828C116.794 1.87075 117.568 2.77445 118.393 3.84187L125.605 13.1998V13.2915H125.698V23.1602H134.564L134.533 13.1998L143.195 1.26828V1.17005H137.929H137.935Z" fill="#004677"></path><path d="M165.006 11.4055C163.079 10.2333 160.904 9.60461 158.586 8.90391C156.79 8.36693 153.977 7.73172 153.977 6.12732C153.977 4.52292 156.306 3.99248 158.196 3.99248C160.619 3.99248 162.979 4.66044 165.006 5.56414V1.65464C162.496 0.986687 159.603 0.65271 156.889 0.65271C153.933 0.65271 150.941 1.05217 148.475 2.25711C146.25 3.36382 144.899 5.19742 144.899 7.10306C144.899 14.5815 159.646 13.7433 159.646 17.8165C159.646 19.6829 156.69 20.1806 154.509 20.1806C151.665 20.1806 148.518 19.4668 145.978 18.3666V22.3809C148.964 23.1733 152.143 23.5727 155.327 23.5727C158.772 23.5727 161.864 23.2715 164.708 21.8439C167.261 20.5473 168.568 18.6154 168.568 16.4413C168.568 14.2672 167.311 12.8069 164.993 11.4055H165.006Z" fill="#004677"></path><path d="M107.196 1.17005H98.2794V23.1602H116.62V19.4799C115.288 19.84 113.887 19.9776 112.264 19.9776C110.523 19.9776 108.726 19.9121 107.177 19.4078L107.202 1.17005H107.196Z" fill="#004677"></path><path d="M34.9875 11.1959C34.9875 7.76446 37.5155 3.99248 43.2468 3.99248C49.9014 3.99248 52.0886 9.4278 52.0886 13.2325C52.0886 14.8631 51.7478 16.5657 50.2917 17.9017C48.7365 19.3358 46.4068 20.2329 43.8292 20.2329C41.0596 20.2329 38.6307 18.9691 37.2738 17.3647C35.9107 15.7013 34.9937 13.1277 34.9937 11.1959H34.9875ZM25.6067 12.0931C25.6067 19.1328 33.296 23.5727 43.2468 23.5727C53.1976 23.5727 61.4694 19.3292 61.4694 12.0603C61.4694 4.79141 54.0155 0.65271 43.823 0.65271C33.6305 0.65271 25.6005 4.99441 25.6005 12.0931H25.6067Z" fill="#004677"></path><path d="M83.6316 23.1471H94.1959C92.2875 21.8243 90.8996 20.436 89.6046 18.9495L83.8423 12.2961C87.0394 11.3531 89.6046 9.51953 89.6046 7.01143C89.6046 4.77182 88.1547 3.0037 85.2922 1.93628C83.1112 1.13736 81.1718 1.16355 78.7739 1.16355H66.0225V23.1537H74.8952V13.7303L81.0788 21.0123C81.8967 22.0077 82.6774 22.5905 83.6316 23.1471ZM74.8952 11.9622V4.41164H75.8804C76.8593 4.41164 77.8941 4.47713 78.7305 4.87659C80.0565 5.51181 80.6947 6.65126 80.6947 7.71868C80.6947 9.82732 78.4331 11.5954 74.8952 11.9622Z" fill="#004677"></path></g><defs><clipPath id="clip0_6083_503"><rect width="168.08" height="22.92" fill="white" transform="translate(0.5 0.65271)"></rect></clipPath></defs></svg> 